<svg width="49" height="50" viewBox="0 0 49 50" fill="none" xmlns="http://www.w3.org/2000/svg">
<circle cx="24.3049" cy="24.6211" r="24" fill="#DEB057"/>
<mask id="mask0_303_48" style="mask-type:luminance" maskUnits="userSpaceOnUse" x="3" y="0" width="42" height="50">
<path d="M3.95337 0.62086H44.6565V49.8931H3.95337V0.62086Z" fill="white"/>
</mask>
<g mask="url(#mask0_303_48)">
<path d="M23.0239 21.903C22.3963 20.7623 21.6285 19.547 21.3494 19.3184C20.8194 18.8839 18.9349 16.2428 17.8589 14.4266C17.4568 13.7484 16.9313 12.8634 16.6913 12.4595C16.3325 11.8562 16.2977 11.684 16.496 11.4947C17.1118 10.9048 18.0547 11.5512 19.2328 13.3692C20.3485 15.0928 21.1643 14.7748 21.6195 12.4386C21.8454 11.2803 21.8518 10.5565 21.6677 7.10393C21.5767 5.39217 21.8385 4.6841 22.5242 4.78292C22.722 4.81142 22.8458 5.048 22.9029 5.50654C23.0779 6.91504 23.2369 8.40159 23.332 9.51296C23.4459 10.836 23.5072 11.0348 23.7841 10.9806C23.9295 10.9528 24.0872 10.0469 24.3478 7.74708C24.7265 4.41212 24.8421 4.04626 25.4928 4.14006C25.6595 4.16409 25.8364 4.27679 25.8839 4.39005C26.0027 4.67003 25.8595 8.06432 25.6571 9.78354C25.3614 12.2864 26.0244 11.516 27.2933 7.87897C27.8525 6.27823 28.1499 5.77228 28.5015 5.82295C29.1847 5.9214 29.1646 6.30878 28.3422 8.86553C27.9101 10.2084 27.4914 11.5785 27.4102 11.91L27.2641 12.5135L28.1502 11.7492C28.6382 11.3282 29.3641 10.5721 29.7654 10.069C30.4675 9.18584 30.9757 8.88779 31.3 9.16889C31.5993 9.42718 31.3628 9.93843 30.3275 11.2762C28.7203 13.354 28.5428 13.6656 28.1297 15.1374C27.9179 15.8917 27.5656 17.003 27.3478 17.6067L26.9515 18.7049C26.9515 18.7049 27.2231 19.1878 27.2405 19.7274C27.2549 20.1789 27.0363 20.6681 26.859 20.9656C26.4364 21.6745 25.6131 22.3352 25.1393 22.6443C24.4003 23.1263 23.3363 22.4723 23.0239 21.9047" fill="black"/>
<path d="M18.1148 33.382C18.2813 32.6636 18.4733 31.8356 18.6946 30.8823C19.0483 29.3588 19.3378 27.8684 19.3378 27.5698C19.3378 26.3581 18.404 25.1857 16.7426 24.312C15.6393 23.7324 14.1975 22.3829 13.3423 21.1306C12.807 20.3463 12.0114 18.6559 11.5301 17.2787C11.3797 16.8507 11.1081 16.333 10.9256 16.1286L10.5933 15.7563L10.9077 15.6311C11.3305 15.4633 12.0384 15.7987 12.4495 16.3625C12.7227 16.7372 12.7673 16.7583 12.8436 16.5546C12.8915 16.4284 12.9336 15.6428 12.9383 14.8087C12.947 13.3069 12.9492 13.2924 13.222 13.2924C13.5554 13.2924 13.9647 13.7245 14.0762 14.193C14.1375 14.451 14.1946 14.5048 14.3067 14.4074C14.6263 14.13 15.077 14.5875 15.077 15.1889C15.077 15.3986 15.1395 15.4874 15.2776 15.4754C15.6202 15.4462 15.7838 16.0053 15.7855 17.2109C15.7872 18.4982 16.0802 19.6972 16.5096 20.1753C16.6558 20.3378 16.8061 20.4708 16.8437 20.4714C16.8813 20.4714 16.8968 19.6621 16.8789 18.674C16.8426 16.707 16.8916 16.5679 17.5168 16.8659C17.9064 17.0514 18.1116 17.6099 18.1994 18.7266C18.3155 20.2013 18.9379 21.0631 20.2024 21.5012C21.2905 21.8782 22.1053 22.8838 22.6225 24.4883C22.9375 25.4644 22.9439 25.543 22.9456 28.578C22.9466 30.2791 22.9015 33.1056 22.8454 34.8582L22.7432 38.0454H21.0836C21.0836 38.0454 17.2781 36.9925 18.1146 33.3813" fill="black"/>
<path d="M26.0308 36.0091C25.9887 34.8887 25.9194 32.2846 25.8767 30.2232C25.8089 26.949 25.8247 26.3415 26.0031 25.4225C26.3973 23.3887 27.3398 21.9462 28.5494 21.5261C29.8964 21.0585 30.4847 20.2353 30.6251 18.6206C30.7413 17.2916 31.1088 16.6565 31.6764 16.8052L31.9589 16.8795L31.9347 18.6792C31.9092 20.5412 31.9502 20.6771 32.3652 20.0922C32.8015 19.4776 33.0534 18.4295 33.0552 17.2258C33.057 16.0051 33.2193 15.4466 33.5636 15.4757C33.7018 15.4877 33.7636 15.399 33.7636 15.1891C33.7636 14.589 34.2144 14.1303 34.5328 14.4066C34.6432 14.5027 34.6974 14.4422 34.7507 14.1648C34.8426 13.6862 35.2246 13.2927 35.5978 13.2927H35.8936L35.8954 14.7469C35.8967 15.547 35.9303 16.3301 35.9706 16.488C36.0422 16.767 36.0533 16.7623 36.4041 16.3181C36.8224 15.7868 37.4275 15.4834 37.8475 15.594C38.2106 15.689 38.2111 15.7094 37.8586 16.1475C37.702 16.3422 37.4812 16.7677 37.3679 17.0941C36.1168 20.6899 34.3826 23.0401 32.0051 24.3605C30.301 25.3071 29.5028 26.3258 29.5028 27.5551C29.5028 27.8687 30.0091 30.3235 30.6274 33.011C31.2457 35.6986 27.674 38.0464 27.674 38.0464H26.1078L26.0314 36.0075L26.0308 36.0091Z" fill="black"/>
<path d="M19.1204 46.7642C19.0796 46.7216 19.1689 46.3096 19.3185 45.8493C20.2507 42.986 20.1451 39.7422 19.0518 37.6417C18.555 36.6869 17.4964 35.6638 16.2153 34.8982C13.9727 33.559 13.3004 32.9984 12.4943 31.7951C11.5935 30.4511 9.88491 28.594 8.90376 27.891C8.52282 27.6185 7.75125 27.186 7.18986 26.9311C6.62795 26.6757 6.18761 26.4104 6.21005 26.3405C6.23321 26.2715 6.65983 26.2147 7.15798 26.2147C7.91459 26.2147 8.2412 26.3036 9.14326 26.754C9.73724 27.0508 10.223 27.262 10.223 27.2229C10.223 27.0748 7.24838 21.961 6.86531 21.4509C6.37349 20.7964 6.3693 20.7502 6.80893 20.7502C7.30146 20.7502 8.15267 21.6076 8.92291 22.879C9.2814 23.4702 9.59438 23.9342 9.61825 23.9087C9.69244 23.8318 8.27095 19.8342 7.99137 19.3334C7.84575 19.0723 7.78652 18.8268 7.85866 18.7805C8.03287 18.6674 8.56424 18.9649 8.86983 19.347C9.18352 19.7368 10.0993 21.6124 10.4395 22.5587C10.8661 23.7478 10.8251 23.0611 10.3611 21.256C10.1216 20.321 9.9591 19.5206 10.0012 19.4771C10.1251 19.347 10.4952 19.7383 10.8564 20.3829C11.0423 20.7152 11.5424 22.0578 11.9675 23.3679C12.8391 26.0509 13.891 28.3229 14.6313 29.1205C15.2266 29.7608 15.4219 29.6984 14.9307 29.0238C14.2577 28.0994 13.74 26.7249 14.0645 26.7249C14.285 26.7249 14.8375 27.1431 15.607 27.8918C16.6337 28.8906 17.8039 29.6555 19.0674 30.153C21.1188 30.9604 21.9169 31.5468 22.4151 32.612C22.8566 33.5556 22.9648 34.7572 22.7906 36.7794C22.6986 37.8642 22.7161 39.3349 22.8528 41.8089C22.9585 43.7322 23.0605 45.6341 23.0795 46.0348L23.1134 46.7634L21.1553 46.8038C20.0776 46.8258 19.1625 46.809 19.1216 46.7661" fill="black"/>
<path d="M25.6917 46.5077C25.6924 46.3271 25.7898 44.7034 25.9088 42.9003C26.059 40.6099 26.0958 38.7648 26.0318 36.7798C25.9333 33.7352 26.0054 33.1197 26.5626 32.2544C27.0531 31.493 27.9092 30.8961 29.3462 30.3141C30.9653 29.6581 32.0649 28.9615 33.2863 27.8181C34.4068 26.7686 34.5905 26.6484 34.7762 26.8426C34.9892 27.0653 34.6837 27.8791 34.0271 28.8391C33.5911 29.4759 33.5277 29.631 33.7585 29.5016C34.5585 29.054 36.0086 26.1097 36.9733 22.9755C37.6094 20.907 38.2789 19.5487 38.7049 19.4625C38.8973 19.4241 38.9464 19.4717 38.8844 19.639C38.7374 20.0395 37.9523 23.2286 37.955 23.4145C37.9563 23.5119 38.1659 23.0643 38.4197 22.419C39.096 20.7035 39.7553 19.4732 40.216 19.0676C40.8828 18.4807 41.2475 18.6428 40.8181 19.3352C40.5663 19.7401 39.0233 24.1024 39.1314 24.1024C39.158 24.1024 39.3784 23.7347 39.6213 23.2849C40.2485 22.1223 41.555 20.7505 42.0353 20.7505C42.4986 20.7505 42.5054 20.8502 42.0741 21.3254C41.7719 21.6591 38.4932 27.1933 38.5578 27.2609C38.5721 27.2766 39.0492 27.0475 39.6179 26.7522C40.5113 26.2883 40.7835 26.2151 41.623 26.2151C42.2762 26.2151 42.6143 26.2748 42.6545 26.3971C42.6871 26.4976 42.6204 26.5793 42.5068 26.5793C42.394 26.5793 41.7216 26.8832 41.0134 27.2531C39.9323 27.8194 39.4983 28.1639 38.3008 29.4027C37.517 30.2167 36.6575 31.2413 36.3912 31.6818C35.7455 32.7521 35.0454 33.3854 33.4027 34.3858C32.6481 34.845 31.7091 35.4699 31.3165 35.7745C30.4784 36.4228 29.5461 37.8124 29.2359 38.8732C28.7003 40.7077 28.7589 43.1858 29.3916 45.4691C29.5787 46.1436 29.7311 46.7236 29.7311 46.7569C29.7311 46.7904 28.8222 46.8225 27.7112 46.8282C25.7039 46.8389 25.6903 46.8366 25.6917 46.5101" fill="black"/>
</g>
</svg>
