<svg width="49" height="51" viewBox="0 0 49 51" fill="none" xmlns="http://www.w3.org/2000/svg">
  <rect x="0.825684" y="0.904297" width="48" height="48" rx="24" fill="#F8F8F8"/>
  <path d="M6.15234 30.8052C6.0612 30.714 6.01562 30.5773 6.01562 30.395C6.01562 30.1398 6.0612 30.0122 6.15234 30.0122C6.33464 30.0122 6.57161 29.9849 6.86328 29.9302C7.15495 29.8755 7.4375 29.8026 7.71094 29.7114C7.98438 29.6203 8.17578 29.52 8.28516 29.4106C8.59505 29.0825 8.75911 28.2896 8.77734 27.0317C8.8138 24.9172 8.85026 23.0213 8.88672 21.3442C8.94141 19.6489 8.98698 18.2635 9.02344 17.188C9.0599 16.0942 9.07812 15.3924 9.07812 15.0825C9.07812 14.5903 9.04167 14.2257 8.96875 13.9888C8.93229 13.8794 8.76823 13.7882 8.47656 13.7153C8.20312 13.6242 7.90234 13.5513 7.57422 13.4966C7.24609 13.4419 6.99089 13.4146 6.80859 13.4146C6.73568 13.4146 6.69922 13.2869 6.69922 13.0317C6.69922 12.8312 6.73568 12.6945 6.80859 12.6216C7.24609 12.6398 7.72917 12.6672 8.25781 12.7036C8.78646 12.7401 9.32422 12.7583 9.87109 12.7583C10.2174 12.7583 10.5911 12.7492 10.9922 12.731C11.4115 12.6945 11.8763 12.658 12.3867 12.6216C12.5326 13.0226 14.3372 17.589 17.8008 26.3208C17.8372 26.3573 17.8737 26.3755 17.9102 26.3755C17.9831 26.3755 18.0286 26.339 18.0469 26.2661C18.9401 24.1698 19.7422 22.2557 20.4531 20.5239C21.1641 18.7922 21.7839 17.2518 22.3125 15.9028L23.4062 12.6216C23.9896 12.658 24.4635 12.6854 24.8281 12.7036C25.2109 12.7218 25.4935 12.731 25.6758 12.731C26.2409 12.731 26.7786 12.7218 27.2891 12.7036C27.7995 12.6854 28.2826 12.658 28.7383 12.6216C28.793 12.7856 28.8203 12.9224 28.8203 13.0317C28.8203 13.2869 28.7747 13.4146 28.6836 13.4146H28.6289C28.4284 13.4146 28.1641 13.4784 27.8359 13.606C27.5078 13.7153 27.2617 13.8338 27.0977 13.9614C26.8789 14.1255 26.7695 14.7362 26.7695 15.7935L27.0156 26.895C27.0521 27.9523 27.1888 28.7909 27.4258 29.4106C27.4805 29.52 27.6263 29.6203 27.8633 29.7114C28.1003 29.8026 28.3555 29.8755 28.6289 29.9302C28.9206 29.9849 29.1302 30.0122 29.2578 30.0122C29.3307 30.0122 29.3672 30.1398 29.3672 30.395C29.3672 30.5226 29.349 30.6593 29.3125 30.8052C28.401 30.7687 27.6719 30.7414 27.125 30.7231C26.5964 30.6867 26.2409 30.6685 26.0586 30.6685L22.7773 30.8052C22.7044 30.7323 22.668 30.5864 22.668 30.3677C22.668 30.1307 22.7044 30.0122 22.7773 30.0122C22.9596 30.0122 23.2331 29.9666 23.5977 29.8755C23.9805 29.7843 24.2539 29.6932 24.418 29.6021C24.6367 29.4562 24.7461 29.0643 24.7461 28.4263V26.9771L24.418 17.3521C24.418 17.1515 24.3906 16.9328 24.3359 16.6958C24.2995 16.4406 24.2539 16.2218 24.1992 16.0396C24.1445 15.839 24.0807 15.7388 24.0078 15.7388C23.9714 15.7388 23.9258 15.8026 23.8711 15.9302L18.1562 29.6021C17.8099 30.3859 17.4727 30.7778 17.1445 30.7778C17.1263 30.7778 17.0443 30.7596 16.8984 30.7231L10.6367 14.8091C10.582 17.3794 10.5182 19.6763 10.4453 21.6997C10.3724 23.7049 10.3086 25.3182 10.2539 26.5396C10.2174 27.7609 10.1992 28.4718 10.1992 28.6724C10.1992 29.0005 10.2539 29.2375 10.3633 29.3833C10.4362 29.4744 10.6185 29.5747 10.9102 29.6841C11.2018 29.7752 11.5026 29.8573 11.8125 29.9302C12.1406 29.9849 12.3594 30.0122 12.4688 30.0122C12.5417 30.0122 12.5781 30.1489 12.5781 30.4224C12.5781 30.5317 12.5599 30.6593 12.5234 30.8052C11.612 30.7687 10.8919 30.7414 10.3633 30.7231C9.83464 30.6867 9.4974 30.6685 9.35156 30.6685L6.15234 30.8052Z" fill="#051923"/>
  <path d="M28.8438 39.2783C28.7812 39.2158 28.75 39.0283 28.75 38.7158C28.75 38.445 28.7812 38.3096 28.8438 38.3096C29.0521 38.3096 29.3021 38.2783 29.5938 38.2158C29.9062 38.1533 30.1979 38.0804 30.4688 37.9971C30.7604 37.8929 30.9375 37.7783 31 37.6533C31.1458 37.4242 31.2188 36.445 31.2188 34.7158V22.9033C31.2188 22.2992 31.1979 21.7679 31.1562 21.3096C31.1354 20.8512 31.0833 20.4867 31 20.2158C30.9583 20.0908 30.7917 19.9762 30.5 19.8721C30.2292 19.7679 29.9271 19.6846 29.5938 19.6221C29.2812 19.5596 29.0312 19.5283 28.8438 19.5283C28.7604 19.5283 28.7188 19.4033 28.7188 19.1533C28.7188 18.8825 28.7604 18.7054 28.8438 18.6221L32.5938 18.6846C32.9062 18.6846 33.25 18.6846 33.625 18.6846C34 18.6637 34.3958 18.6429 34.8125 18.6221C35.2292 18.6012 35.625 18.5908 36 18.5908C36.375 18.57 36.7083 18.5596 37 18.5596C37.6875 18.5596 38.3854 18.6637 39.0938 18.8721C39.8021 19.0804 40.4792 19.3929 41.125 19.8096C41.7917 20.2262 42.3229 20.82 42.7188 21.5908C43.1354 22.3617 43.3438 23.2575 43.3438 24.2783C43.3438 24.9242 43.2083 25.6117 42.9375 26.3408C42.6667 27.07 42.2604 27.7575 41.7188 28.4033C41.1979 29.0283 40.5312 29.5387 39.7188 29.9346C38.9271 30.3304 38.0104 30.5283 36.9688 30.5283C35.8021 30.5283 35 30.2367 34.5625 29.6533C34.4375 29.5075 34.4062 29.2679 34.4688 28.9346C34.5104 28.8304 34.5417 28.7992 34.5625 28.8408C35.2083 29.07 35.9062 29.1846 36.6562 29.1846C37.3646 29.1846 38 28.9867 38.5625 28.5908C39.1458 28.1742 39.6042 27.6325 39.9375 26.9658C40.2917 26.2783 40.4688 25.5387 40.4688 24.7471C40.4688 23.2679 40.1458 22.1012 39.5 21.2471C38.8542 20.3721 37.8542 19.9346 36.5 19.9346C35.5417 19.9346 34.8125 20.0075 34.3125 20.1533C34.125 20.1742 34.0104 20.4971 33.9688 21.1221C33.9479 21.7471 33.9375 22.57 33.9375 23.5908V34.7471C33.9375 36.1221 34.0208 37.0283 34.1875 37.4658C34.2708 37.6325 34.4688 37.7887 34.7812 37.9346C35.1146 38.0804 35.4688 38.195 35.8438 38.2783C36.2188 38.3408 36.4896 38.3721 36.6562 38.3721C36.7396 38.3721 36.7812 38.5179 36.7812 38.8096C36.7812 38.9554 36.7604 39.1117 36.7188 39.2783C35.6771 39.2367 34.8125 39.2054 34.125 39.1846C33.4583 39.1429 32.9688 39.1221 32.6562 39.1221L28.8438 39.2783Z" fill="#051923"/>
</svg>
