<svg xmlns="http://www.w3.org/2000/svg" width="50" height="50" viewBox="0 0 1104 1280">
<g transform="translate(0,1280) scale(0.1,-0.1)"
fill="#000000" stroke="none">
<path d="M929 12790 c-243 -14 -299 -65 -330 -300 -28 -216 -20 -2185 10
-2262 16 -43 345 -305 1124 -898 l427 -325 0 -2300 -1 -2300 -296 -310 c-505
-529 -837 -886 -950 -1022 -101 -122 -97 -91 -103 -738 l-5 -560 -290 -5
c-332 -6 -330 -5 -441 -100 l-62 -52 -7 -527 c-8 -519 -4 -715 16 -840 21
-137 87 -209 202 -222 223 -26 1400 -31 5957 -26 l4715 6 56 59 c37 39 60 74
69 103 10 33 14 185 17 602 7 808 -5 894 -128 955 -50 25 -211 41 -419 42 -58
0 -135 3 -172 7 l-68 6 0 338 c0 406 -16 780 -35 824 -27 61 -292 358 -922
1032 l-403 432 0 2298 1 2298 272 205 c881 664 1241 950 1272 1010 32 61 38
296 31 1215 -6 864 -14 1123 -35 1202 -12 42 -70 106 -113 122 -59 22 -297 31
-989 37 -808 7 -1025 0 -1106 -36 -84 -37 -119 -85 -149 -202 -13 -49 -17
-135 -21 -396 l-5 -332 -547 2 -546 3 -11 375 c-7 206 -16 390 -22 407 -27 84
-87 124 -219 149 -109 20 -654 33 -1408 33 -619 1 -926 -9 -998 -29 -53 -16
-111 -71 -137 -132 -39 -91 -50 -186 -57 -505 l-6 -303 -542 0 -542 0 -6 122
c-4 66 -7 189 -7 272 -1 195 -15 372 -33 416 -30 70 -92 108 -212 130 -33 6
-186 15 -340 20 -317 10 -1310 10 -1486 0z m1494 -887 c8 -415 24 -498 114
-572 78 -64 72 -64 778 -69 352 -2 771 -1 930 3 l290 7 57 69 c86 104 87 110
90 526 l3 353 842 0 841 0 5 -337 c4 -280 7 -348 22 -398 43 -152 105 -200
278 -215 133 -12 1278 -12 1517 0 320 16 391 52 419 215 5 33 13 197 16 365 3
168 8 320 11 338 l5 32 624 0 625 0 0 -790 0 -790 -4365 0 -4365 0 0 790 0
790 629 0 628 0 6 -317z m6069 -1862 l827 -6 -390 -297 -390 -298 -3017 0
-3017 1 -384 297 -383 297 738 5 c1072 7 5050 8 6016 1z m-182 -3316 l0 -2135
-2782 0 -2783 0 2 2132 c2 1173 3 2134 3 2136 0 1 1251 2 2780 2 l2780 0 0
-2135z m460 -3025 c294 -315 459 -497 490 -540 l21 -30 -3772 0 -3773 0 50 53
c28 28 213 223 410 432 l358 380 2961 5 c2621 4 2962 3 2979 -10 10 -8 134
-139 276 -290z m898 -1537 l-3 -388 -4137 -3 -4138 -2 0 390 0 390 4140 0
4140 0 -2 -387z m802 -1280 l0 -308 -4945 0 -4945 0 0 308 0 307 4945 0 4945
0 0 -307z"/>
</g>
</svg>
