<svg xmlns="http://www.w3.org/2000/svg"
 width="55" height="55" viewBox="0 0 200 200">

<g transform="translate(0,200) scale(0.1,-0.1)"
fill="#000000" stroke="none">
<path d="M1142 1983 c-19 -7 -42 -58 -42 -93 l0 -31 -30 16 c-43 22 -87 19
-115 -10 -42 -41 -32 -99 28 -162 l31 -33 -176 0 c-97 0 -183 -3 -192 -6 -14
-5 -16 -29 -16 -160 l0 -154 25 -6 25 -6 0 -194 c0 -124 -4 -194 -10 -194 -35
0 -117 -56 -203 -139 l-98 -95 -37 37 c-21 20 -42 37 -48 37 -12 0 -244 -232
-244 -245 0 -16 524 -535 540 -535 20 0 240 221 240 241 0 8 -14 28 -30 44
-17 16 -30 32 -30 37 0 4 141 8 314 8 l314 0 58 39 c33 22 112 89 176 151 92
87 134 136 197 232 44 66 95 149 113 185 l33 64 -32 29 c-31 28 -87 50 -129
50 -11 0 -42 -6 -67 -14 l-47 -14 0 137 c0 132 1 137 23 146 21 10 22 16 25
154 2 97 -1 148 -9 157 -9 11 -51 14 -196 14 l-185 0 32 26 c63 54 78 126 35
169 -28 29 -72 32 -115 10 l-30 -16 0 31 c0 35 -15 69 -39 87 -16 12 -65 16
-89 6z m70 -111 c0 -21 -7 -54 -15 -73 l-15 -34 -12 30 c-28 71 -8 167 28 131
8 -8 14 -32 14 -54z m-149 -62 c24 -19 81 -119 73 -128 -8 -8 -108 52 -127 76
-10 14 -19 35 -19 48 0 31 36 33 73 4z m317 -4 c0 -13 -9 -34 -19 -48 -19 -24
-119 -84 -127 -76 -8 9 49 109 73 128 37 29 73 27 73 -4z m290 -301 l0 -95
-490 0 -490 0 0 95 0 95 490 0 490 0 0 -95z m-620 -391 l0 -226 -22 16 c-60
43 -84 50 -180 54 l-98 4 0 189 0 189 150 0 150 0 0 -226z m200 -9 l0 -235
-70 0 -70 0 0 235 0 235 70 0 70 0 0 -235z m370 63 l0 -173 -29 -44 c-46 -70
-71 -81 -178 -81 l-93 0 0 235 0 235 150 0 150 0 0 -172z m245 -162 c18 -13
17 -15 -10 -62 -112 -192 -218 -319 -394 -470 l-74 -64 -314 0 c-253 0 -319
-3 -342 -14 l-28 -15 -144 145 -144 145 92 90 c122 119 145 129 299 129 l121
0 63 -42 63 -43 131 -3 c158 -3 171 -6 192 -37 14 -21 14 -30 5 -54 -20 -46
-45 -51 -251 -51 -177 0 -190 -1 -200 -19 -8 -15 -6 -24 7 -36 15 -15 39 -17
212 -13 163 3 202 7 229 21 42 23 72 72 72 119 0 36 2 38 79 80 67 37 86 53
123 107 25 38 57 72 78 83 41 21 109 24 135 4z m-1345 -531 l225 -225 -83 -82
-82 -83 -225 225 c-124 124 -225 229 -225 235 0 13 142 155 155 155 6 0 111
-101 235 -225z"/>
</g>
</svg>
