<svg version="1.0" xmlns="http://www.w3.org/2000/svg"
 width="191.000000pt" height="231.000000pt" viewBox="0 0 191.000000 231.000000"
 preserveAspectRatio="xMidYMid meet">
<g transform="translate(0.000000,231.000000) scale(0.100000,-0.100000)"
fill="#000000" stroke="none">
<path d="M965 2273 c-26 -6 -45 -31 -45 -60 0 -21 -4 -23 -52 -24 -75 0 -151
-14 -156 -28 -3 -8 -8 -9 -16 -2 -9 7 -65 8 -172 2 -87 -5 -162 -7 -166 -5 -4
2 -63 -49 -131 -113 l-125 -118 62 -25 c34 -14 77 -35 96 -46 19 -12 63 -36
97 -54 l63 -33 117 16 c65 8 132 14 148 14 17 -1 77 2 135 7 l105 8 -3 -100
-3 -100 -37 -5 c-20 -3 -71 -9 -112 -13 -41 -4 -78 -11 -81 -16 -3 -5 -2 -30
2 -56 4 -26 8 -68 8 -94 1 -28 7 -53 16 -62 11 -11 13 -21 7 -33 -6 -11 -5
-42 1 -80 12 -72 7 -70 120 -48 43 8 79 15 80 15 1 0 2 -215 2 -478 l0 -477
-23 80 c-13 44 -28 85 -34 90 -12 12 -11 4 31 -150 32 -115 32 -114 -22 -40
-9 11 -19 16 -23 12 -5 -4 -4 -11 2 -15 13 -8 67 -92 60 -92 -3 0 -14 10 -26
22 -11 12 -20 16 -20 10 0 -7 9 -20 20 -29 28 -24 25 -33 -9 -33 -42 0 -91
-11 -91 -21 0 -5 21 -6 46 -2 34 4 48 2 55 -8 7 -11 9 -10 9 4 0 10 5 15 10
12 6 -4 8 -10 5 -15 -3 -4 2 -10 10 -14 10 -4 15 1 15 14 0 11 3 19 8 18 4 0
14 1 22 5 39 14 61 15 56 2 -2 -7 1 -16 9 -18 7 -3 15 3 18 14 3 10 12 19 21
19 10 0 14 -6 10 -17 -5 -17 -5 -17 6 -1 6 11 24 18 43 19 18 0 25 3 17 6 -8
3 -17 10 -21 14 -3 5 -19 5 -37 0 -30 -9 -32 -8 -36 22 -5 29 -16 1067 -12
1067 14 0 290 41 295 44 3 2 51 7 105 10 55 4 111 9 125 13 14 3 60 38 101 76
41 39 101 87 133 107 l58 37 -58 33 c-32 18 -85 52 -118 75 -97 69 -90 67
-218 45 -99 -17 -370 -50 -413 -50 -12 0 -14 18 -13 95 l2 95 101 0 c56 0 107
4 115 9 11 7 12 30 6 121 -4 62 -13 130 -20 151 -10 27 -11 48 -5 71 14 48 4
53 -105 42 l-95 -9 0 27 c0 17 -7 31 -19 38 -21 10 -23 11 -56 3z m41 -28 c11
-8 14 -15 7 -15 -7 0 -13 -5 -13 -11 0 -5 5 -7 10 -4 6 3 10 1 10 -4 0 -6 -18
-11 -40 -11 -33 0 -40 3 -40 20 0 10 8 24 18 29 23 14 25 13 48 -4z m220 -61
c-3 -9 -6 -22 -6 -30 0 -8 -7 -14 -15 -14 -21 0 -19 -18 4 -25 10 -3 21 -15
24 -25 5 -18 0 -20 -55 -20 -37 0 -57 -4 -53 -10 3 -5 31 -10 61 -10 l54 0 0
-40 c0 -31 -4 -40 -17 -41 -14 0 -13 -2 5 -9 24 -10 32 -59 10 -61 -10 0 -10
-2 0 -6 6 -2 12 -16 12 -29 0 -23 -2 -24 -84 -24 -46 0 -104 -3 -130 -6 -45
-7 -46 -6 -46 22 0 27 -1 27 -17 11 -16 -16 -16 -19 -3 -28 11 -7 -5 -9 -55
-6 -38 2 -83 0 -100 -5 -16 -5 -75 -10 -130 -12 -55 -3 -136 -9 -180 -16 -80
-11 -80 -11 -147 21 -37 18 -65 36 -62 41 3 4 27 8 55 8 27 0 49 5 49 10 0 11
-28 11 -75 1 -21 -5 -54 2 -109 21 -43 15 -81 28 -84 28 -3 0 3 7 14 15 14 10
49 15 129 16 61 0 121 5 135 9 23 7 23 8 3 9 -12 1 -25 6 -28 11 -3 6 -11 10
-16 10 -6 0 -7 -4 -4 -10 3 -6 -29 -8 -84 -7 l-91 2 80 78 c45 43 84 76 88 73
4 -2 75 0 157 5 165 11 200 6 250 -36 l30 -25 -29 6 c-21 5 -27 4 -22 -5 4 -6
14 -11 22 -11 9 0 30 -15 48 -32 38 -38 91 -78 101 -78 13 0 -18 31 -62 61
-24 17 -46 41 -49 55 -4 14 -23 36 -43 49 -19 14 -33 25 -31 26 3 0 14 3 25 6
11 3 63 9 115 14 359 34 364 34 356 13z m-231 -385 c-5 -15 -4 -19 4 -15 6 4
11 1 11 -6 0 -9 3 -9 10 2 7 10 9 -11 8 -70 l-3 -85 -42 -6 -43 -5 0 77 c0 69
3 80 22 93 12 9 19 16 15 16 -5 0 -5 5 -2 10 12 19 26 10 20 -11z m692 -185
c54 -36 108 -70 121 -75 22 -8 20 -12 -40 -52 -35 -23 -75 -48 -90 -54 -15 -7
-34 -27 -41 -45 -8 -18 -21 -39 -29 -46 -9 -7 -74 -19 -144 -27 -71 -8 -160
-19 -198 -24 -38 -6 -72 -8 -77 -5 -4 2 -43 -5 -85 -16 -96 -25 -104 -25 -104
0 0 22 -15 27 -26 9 -3 -6 0 -15 7 -20 18 -10 11 -12 -116 -33 -117 -19 -115
-19 -115 -6 0 5 18 13 40 16 22 4 43 11 47 17 6 10 -49 3 -85 -10 -15 -6 -15
-5 -3 10 7 9 9 17 3 17 -14 0 -23 53 -11 65 6 6 38 12 71 15 90 7 83 25 -9 25
-73 0 -78 2 -81 22 -3 18 3 23 35 29 39 7 78 23 71 29 -2 3 -27 -2 -55 -9 -49
-13 -51 -13 -57 7 -3 13 0 25 9 30 20 11 19 28 -1 20 -13 -5 -15 -2 -9 15 4
13 2 22 -4 22 -6 0 -11 6 -11 14 0 9 21 15 73 20 39 4 115 14 167 21 52 8 162
21 244 30 82 8 190 22 240 30 108 17 137 22 153 24 6 0 55 -29 110 -65z m-659
-414 c0 -36 -2 -38 -13 -23 -9 12 -10 20 -3 24 7 4 7 9 0 13 -21 12 -22 -28
-2 -56 18 -24 30 -101 13 -84 -7 6 -8 12 -16 54 -2 9 -8 16 -13 15 -15 -3 -15
-20 0 -32 8 -7 12 -19 9 -27 -3 -7 2 -17 11 -20 9 -3 16 -13 16 -21 0 -11 -3
-13 -13 -5 -7 6 -18 7 -25 3 -9 -5 -5 -14 13 -31 24 -22 25 -29 23 -124 -1
-79 -3 -91 -8 -56 -6 35 -7 24 -8 -53 -2 -70 1 -96 9 -91 8 5 10 -68 8 -269
l-4 -275 -33 -4 c-29 -4 -33 -1 -42 31 -5 19 -9 240 -10 510 0 458 1 477 20
509 21 34 17 44 -6 15 -7 -10 -14 -13 -14 -7 0 17 22 32 55 37 17 2 31 5 32 6
1 0 1 -17 1 -39z"/>
<path d="M974 2146 c-8 -21 3 -49 18 -44 6 2 14 11 17 19 3 12 1 12 -14 -1
-17 -14 -17 -14 -7 7 8 14 9 24 2 28 -6 3 -13 -1 -16 -9z"/>
<path d="M580 2090 c-11 -7 -4 -10 28 -10 23 0 42 5 42 10 0 13 -50 13 -70 0z"/>
<path d="M305 2050 c-4 -6 33 -10 104 -10 67 0 111 4 111 10 0 6 -41 10 -104
10 -59 0 -108 -4 -111 -10z"/>
<path d="M1160 1870 c-11 -7 -2 -10 33 -10 26 0 47 5 47 10 0 13 -60 13 -80 0z"/>
<path d="M408 1823 c17 -2 47 -2 65 0 17 2 3 4 -33 4 -36 0 -50 -2 -32 -4z"/>
<path d="M1565 1605 c-5 -2 -22 -6 -37 -9 -51 -11 -29 -23 25 -14 65 12 95 28
52 27 -16 0 -34 -2 -40 -4z"/>
<path d="M1300 1580 c-12 -7 -8 -10 15 -10 17 0 37 5 45 10 12 7 8 10 -15 10
-16 0 -37 -5 -45 -10z"/>
<path d="M970 1556 c0 -26 15 -43 24 -28 7 12 -4 52 -15 52 -5 0 -9 -11 -9
-24z"/>
<path d="M1675 1535 c-16 -7 -23 -14 -15 -14 25 -1 60 11 60 20 0 12 -9 11
-45 -6z"/>
<path d="M1002 1380 c-33 -8 -49 -17 -41 -24 6 -5 116 18 125 27 9 9 -41 7
-84 -3z"/>
<path d="M1585 1375 c-5 -2 -30 -9 -54 -15 -23 -6 -41 -13 -39 -16 8 -7 118
18 118 27 0 9 -7 10 -25 4z"/>
<path d="M1092 245 c-28 -35 -36 -65 -23 -78 7 -7 12 -5 16 9 4 10 13 34 21
53 19 43 12 50 -14 16z"/>
</g>
</svg>
