<svg xmlns="http://www.w3.org/2000/svg" version="1.1" viewBox="0 0 571.25 661.25"><defs><clipPath id="a"><path d="m0 529h457v-529h-457v529z"/></clipPath></defs><g transform="matrix(1.25,0,0,-1.25,0,661.25)"><g clip-path="url(#a)"><g transform="translate(214.12 300.51)"><path d="m0 0c-7.047 12.247-15.668 25.295-18.801 27.749-5.951 4.665-27.109 33.021-39.19 52.52-4.515 7.281-10.415 16.783-13.11 21.119-4.028 6.477-4.419 8.326-2.192 10.359 6.913 6.333 17.5-0.607 30.727-20.126 12.527-18.505 21.686-15.091 26.797 9.991 2.537 12.436 2.608 20.207 0.542 57.275-1.022 18.378 1.917 25.98 9.616 24.919 2.221-0.306 3.611-2.846 4.252-7.769 1.965-15.122 3.75-31.082 4.818-43.014 1.278-14.204 1.967-16.339 5.076-15.757 1.632 0.299 3.403 10.025 6.329 34.716 4.252 35.805 5.549 39.733 12.855 38.726 1.872-0.258 3.858-1.468 4.392-2.684 1.333-3.006-0.274-39.448-2.547-57.906-3.32-26.871 4.124-18.6 18.371 20.448 6.278 17.186 9.617 22.618 13.565 22.074 7.671-1.057 7.445-5.216-1.789-32.666-4.851-14.417-9.552-29.127-10.464-32.686l-1.64-6.48 9.949 8.206c5.479 4.52 13.629 12.638 18.135 18.039 7.882 9.482 13.588 12.682 17.23 9.664 3.36-2.773 0.705-8.262-10.919-22.625-18.045-22.307-20.038-25.653-24.677-41.455-2.378-8.098-6.333-20.029-8.778-26.511l-4.45-11.79s3.05-5.185 3.245-10.978c0.162-4.848-2.293-10.1-4.284-13.294-4.744-7.611-13.988-14.704-19.308-18.023-8.297-5.175-20.243 1.847-23.75 7.941"/></g><g transform="translate(159 177.26)"><path d="m0 0c1.869 7.713 4.025 16.602 6.51 26.837 3.971 16.357 7.222 32.358 7.222 35.564 0 13.009-10.485 25.596-29.139 34.977-12.387 6.222-28.575 20.711-38.177 34.156-6.01 8.421-14.943 26.569-20.347 41.355-1.688 4.595-4.738 10.154-6.787 12.348l-3.731 3.997 3.53 1.344c4.748 1.802 12.696-1.799 17.311-7.852 3.068-4.023 3.568-4.25 4.425-2.063 0.538 1.355 1.011 9.79 1.063 18.745 0.098 16.123 0.123 16.279 3.186 16.279 3.743 0 8.338-4.639 9.59-9.669 0.688-2.77 1.329-3.347 2.588-2.302 3.588 2.979 8.649-1.933 8.649-8.39 0-2.252 0.701-3.205 2.252-3.076 3.847 0.313 5.684-5.689 5.703-18.633 0.019-13.821 3.308-26.694 8.13-31.827 1.641-1.744 3.329-3.172 3.751-3.179 0.422 0 0.596 8.689 0.395 19.298-0.408 21.118 0.143 22.611 7.162 19.412 4.374-1.991 6.678-7.988 7.664-19.977 1.304-15.833 8.292-25.085 22.489-29.789 12.217-4.047 21.365-14.844 27.172-32.07 3.537-10.48 3.608-11.324 3.628-43.908 0.011-18.264-0.495-48.61-1.125-67.426l-1.148-34.219h-18.633s-42.727 11.304-33.335 50.075"/></g><g transform="translate(247.88 149.06)"><path d="m0 0c-0.473 12.029-1.251 39.987-1.731 62.119-0.761 35.153-0.584 41.675 1.42 51.542 4.425 21.835 15.008 37.322 28.588 41.832 15.124 5.021 21.729 13.859 23.306 31.195 1.304 14.268 5.431 21.087 11.803 19.49l3.172-0.797-0.272-19.323c-0.286-19.99 0.174-21.45 4.834-15.17 4.898 6.599 7.727 17.851 7.747 30.775 0.02 13.105 1.842 19.102 5.708 18.789 1.552-0.129 2.246 0.824 2.246 3.077 0 6.443 5.061 11.368 8.636 8.401 1.239-1.032 1.848-0.382 2.446 2.596 1.032 5.139 5.321 9.363 9.511 9.363h3.322l0.02-15.612c0.014-8.59 0.391-16.998 0.844-18.693 0.804-2.996 0.929-2.945 4.867 1.824 4.697 5.704 11.491 8.961 16.206 7.774 4.077-1.02 4.082-1.239 0.125-5.943-1.759-2.09-4.237-6.658-5.51-10.163-14.047-38.605-33.517-63.837-60.211-78.014-19.133-10.162-28.095-21.1-28.095-34.298 0-3.367 5.684-29.722 12.627-58.576 6.942-28.855-33.16-54.061-33.16-54.061h-17.585l-0.858 21.89z"/></g><g transform="translate(170.29 33.588)"><path d="m0 0c-0.458 0.458 0.544 4.881 2.224 9.823 10.466 30.741 9.281 65.568-2.995 88.119-5.577 10.251-17.463 21.236-31.847 29.455-25.179 14.378-32.727 20.397-41.778 33.316-10.114 14.429-29.297 34.368-40.313 41.915-4.277 2.926-12.94 7.57-19.243 10.306-6.309 2.742-11.253 5.591-11.001 6.341 0.26 0.741 5.05 1.351 10.643 1.351 8.495 0 12.162-0.955 22.29-5.791 6.669-3.186 12.123-5.454 12.123-5.034 0 1.59-33.398 56.493-37.699 61.97-5.522 7.027-5.569 7.523-0.633 7.523 5.53 0 15.087-9.205 23.735-22.855 4.025-6.348 7.539-11.329 7.807-11.055 0.833 0.825-15.127 43.744-18.266 49.121-1.635 2.803-2.3 5.439-1.49 5.936 1.956 1.214 7.922-1.979 11.353-6.082 3.522-4.185 13.804-24.322 17.624-34.482 4.789-12.766 4.329-5.393-0.88 13.987-2.689 10.038-4.514 18.631-4.041 19.098 1.391 1.397 5.546-2.804 9.602-9.725 2.087-3.567 7.702-17.982 12.475-32.047 9.786-28.806 21.596-53.199 29.908-61.762 6.684-6.874 8.876-6.204 3.361 1.038-7.556 9.925-13.368 24.682-9.725 24.682 2.476 0 8.679-4.49 17.319-12.528 11.527-10.724 24.666-18.936 38.852-24.277 23.032-8.669 31.993-14.964 37.586-26.401 4.957-10.13 6.172-23.031 4.216-44.742-1.033-11.647-0.836-27.436 0.699-53.998 1.186-20.649 2.332-41.068 2.545-45.37l0.381-7.823-21.985-0.434c-12.1-0.236-22.374-0.055-22.834 0.405"/></g><g transform="translate(244.07 36.346)"><path d="m0 0c8e-3 1.94 1.101 19.372 2.437 38.731 1.687 24.59 2.1 44.399 1.382 65.711-1.106 32.688-0.297 39.296 5.959 48.586 5.507 8.174 15.119 14.583 31.253 20.831 18.179 7.044 30.525 14.522 44.238 26.798 12.581 11.268 14.644 12.559 16.729 10.474 2.391-2.391-1.039-11.129-8.411-21.435-4.895-6.837-5.607-8.503-3.016-7.113 8.982 4.805 25.263 36.416 36.095 70.066 7.142 22.208 14.659 36.791 19.441 37.716 2.161 0.413 2.712-0.099 2.016-1.895-1.651-4.3-10.465-38.539-10.435-40.534 0.015-1.046 2.368 3.759 5.217 10.688 7.594 18.418 14.996 31.626 20.169 35.981 7.486 6.301 11.581 4.561 6.76-2.873-2.827-4.347-20.152-51.182-18.938-51.182 0.299 0 2.773 3.948 5.501 8.777 7.042 12.482 21.71 27.21 27.103 27.21 5.202 0 5.278-1.07 0.436-6.172-3.393-3.583-40.205-63-39.48-63.726 0.161-0.168 5.517 2.292 11.902 5.462 10.031 4.981 13.087 5.767 22.513 5.767 7.334 0 11.13-0.641 11.581-1.955 0.366-1.078-0.383-1.956-1.658-1.956-1.267 0-8.816-3.262-16.767-7.234-12.139-6.08-17.012-9.778-30.457-23.078-8.8-8.74-18.45-19.74-21.44-24.47-7.25-11.49-15.11-18.29-33.554-29.03-8.472-4.93-19.015-11.64-23.423-14.91-9.41-6.96-19.877-21.879-23.36-33.268-6.013-19.696-5.356-46.302 1.748-70.816 2.101-7.241 3.812-13.468 3.812-13.826 0-0.36-10.205-0.704-22.679-0.765-22.537-0.115-22.69-0.091-22.674 3.415"/></g></g></g></svg>