<svg width="69" height="69" viewBox="0 0 69 69" fill="none" xmlns="http://www.w3.org/2000/svg">
  <path d="M8.5123 15.8413H8.41374C7.34057 15.906 6.26557 15.7488 5.25589 15.3794C4.24621 15.01 3.32351 14.4365 2.54543 13.6945C1.76735 12.9526 1.15059 12.0582 0.733662 11.0672C0.316735 10.0762 0.108596 9.00992 0.122243 7.93489C0.13589 6.85985 0.371029 5.79917 0.812978 4.81909C1.25493 3.839 1.89419 2.96056 2.69086 2.2386C3.48752 1.51665 4.42448 0.966704 5.44321 0.623095C6.46195 0.279487 7.54059 0.1496 8.61177 0.241545C9.68826 0.163583 10.7692 0.309183 11.7867 0.66919C12.8042 1.0292 13.7363 1.59583 14.5242 2.33345C15.3121 3.07107 15.9389 3.96373 16.3651 4.95531C16.7914 5.94688 17.0079 7.01592 17.001 8.09521C16.9941 9.1745 16.764 10.2407 16.3252 11.2267C15.8863 12.2128 15.2482 13.0974 14.4509 13.8249C13.6536 14.5524 12.7145 15.1071 11.6925 15.4541C10.6705 15.8011 9.58771 15.9329 8.5123 15.8413Z" fill="#051923"/>
  <path d="M15.563 26.3413H1.56302V68.3413H15.563V26.3413Z" fill="#051923"/>
  <path d="M52.3114 26.3413C49.9522 26.3478 47.6251 26.8873 45.5038 27.9198C43.3825 28.9522 41.522 30.4507 40.0614 32.3033V26.3413H26.0614V68.3413H40.0614V49.0913C40.0614 47.2348 40.7989 45.4543 42.1117 44.1416C43.4244 42.8288 45.2049 42.0913 47.0614 42.0913C48.9179 42.0913 50.6984 42.8288 52.0111 44.1416C53.3239 45.4543 54.0614 47.2348 54.0614 49.0913V68.3413H68.0614V42.0913C68.0614 40.023 67.654 37.9749 66.8625 36.064C66.071 34.1532 64.9109 32.4169 63.4483 30.9544C61.9858 29.4919 60.2495 28.3317 58.3387 27.5402C56.4278 26.7487 54.3797 26.3413 52.3114 26.3413V26.3413Z" fill="#051923"/>
</svg>
