<svg width="21" height="13" viewBox="0 0 21 13" fill="none" xmlns="http://www.w3.org/2000/svg">
<path d="M0.684225 8.91383L8.84208 0.851063C9.01885 0.67283 9.22917 0.531362 9.4609 0.434821C9.69263 0.338279 9.94118 0.288574 10.1922 0.288574C10.4432 0.288574 10.6918 0.338279 10.9235 0.434821C11.1552 0.531362 11.3656 0.67283 11.5423 0.851063L19.6051 8.91383C19.7833 9.09061 19.9248 9.30093 20.0214 9.53266C20.1179 9.76438 20.1676 10.0129 20.1676 10.264C20.1676 10.515 20.1179 10.7636 20.0214 10.9953C19.9248 11.227 19.7833 11.4373 19.6051 11.6141C19.2488 11.9683 18.7669 12.1671 18.2645 12.1671C17.7621 12.1671 17.2801 11.9683 16.9239 11.6141L10.1922 4.88245L3.46056 11.6141C3.10636 11.9654 2.6283 12.1635 2.12944 12.1656C1.87918 12.167 1.63109 12.119 1.3994 12.0244C1.16772 11.9298 0.956989 11.7903 0.779304 11.6141C0.594706 11.4437 0.445709 11.2384 0.340918 11.01C0.236127 10.7817 0.177621 10.5349 0.16878 10.2838C0.15994 10.0327 0.20094 9.78237 0.289411 9.54723C0.377882 9.31209 0.512071 9.09681 0.684225 8.91383Z" fill="#3D3D3D"/>
</svg>
